<?xml version="1.0" encoding="utf-8"?>
<!-- Generator: Adobe Illustrator 26.1.0, SVG Export Plug-In . SVG Version: 6.00 Build 0)  -->
<svg version="1.1" id="Layer_1" xmlns="http://www.w3.org/2000/svg" xmlns:xlink="http://www.w3.org/1999/xlink" x="0px" y="0px"
	 viewBox="0 0 600.9 566.9" style="enable-background:new 0 0 600.9 566.9;" xml:space="preserve">
<style type="text/css">
	.st0{fill:#010101;}
	.st1{fill:#FFFFFF;}
</style>
<path class="st0" d="M0,0h600.9v566.9H0V0z"/>
<g>
	<path class="st1" d="M446.7,133.7c-4.9,19-15,25.1-24.2,25.1c-14.8,0-22.7-13.9-22.7-13.9v13.9h-9.4V42.8h9.7v52.6
		c0,0,5.2-16.7,15.1-19.4C428.5,72.4,458.3,89,446.7,133.7z M407.7,139.8c6.2,11.8,24.5,23.2,33.6,1.2c8.7-26.4-5.7-51.4-20.3-56
		c-16.9-5.3-21.2,16.2-21.2,16.2v38.5L407.7,139.8z"/>
	<path class="st1" d="M523.5,137.5c-1.5,3.9-9.4,19.5-24.6,21.2c-17.6,1.9-31.5-8.7-37.9-28.7c-6.8-21.4,3.1-45.5,16-51.8
		c9.3-4.5,20.2-4.4,29.3,0.5c9.1,4.6,14,14,14,14C530.3,109.2,527.1,127.9,523.5,137.5z M509.4,94.8c-3.9-8.2-13.2-18.6-28.1-14.6
		c-28.1,7.5-10.2,83.8,23.2,73.5c3.1-0.9,6.6-4.2,8.8-9.8C523.1,119.5,509.5,94.8,509.4,94.8L509.4,94.8z"/>
</g>
<g>
	<path class="st1" d="M482.4,144.8v115.5H473v-13.5c-2.1,3.3-4.7,6.3-7.8,8.7c-4.3,3.8-7.7,4.8-12.2,4.8c-10.1,0.1-19-7.2-22.3-11.7
		c-3.8-5-20.6-28.4-4.5-58.4c5-8,10.2-11.1,16.6-12.7c7.6-2.1,22.5,3,30.1,15.9v-48.5H482.4z M473,201.4v-4.7h-9.9
		c-2.3-3.3-6.3-9.4-11.6-11.5c-10.2-4.3-18.7-1.4-23.1,7.3c0,0-10.1,16.3,7.5,45.9c1.8,2.9,6.8,9.2,13.8,12.3
		c7.5,3.6,17.1,3.6,21.5-7.7c1-4,1.6-8.1,1.8-12.2V201.4z"/>
</g>
<g>
	<path class="st1" d="M427,260.9c0,1.9-0.9,3.6-2.5,4.6h-5.7c-2.6-1.6-3.3-5.1-1.6-7.6c1-1.5,2.7-2.5,4.6-2.5
		C424.7,255.4,427,257.9,427,260.9C427,260.9,427,260.9,427,260.9z M417,361.8v-83.5h9.5v83.5H417z"/>
	<path class="st1" d="M451.4,317.2c1.8,8.1,5,15.8,9.4,22.9c1.7,2.8,9.1,14.3,22.5,14.3c9.7,0,10.7-11.5,10.7-19.4h6.9
		c-1.8,11-7.4,26.8-23.2,26.8c-10.1,0-18.9-7.2-22.2-11.6c-3.8-5.1-20.6-28.5-4.6-58.5c5-8,10.3-11.1,16.7-12.8
		c7.5-2,24.9,2.2,31.4,19.3c2.5,6.9,2.8,16.9,2.3,19L451.4,317.2z M450.8,313.7h42c-0.1-4.4-4.2-22.1-16.4-27
		c-10.3-4.1-18.7-1.3-23.1,7.3C453.3,293.9,449,300.8,450.8,313.7z"/>
</g>
<g>
	<path class="st1" d="M471.5,459.9c-28.8,12.9-44.3-12.8-47.1-19.6h14.2c2.4,5.3,7.5,20.7,25.5,20.7c4.5,0,16.2-13.2,8.7-39.4
		c-3.1-10.6-39,5.9-45.1-9.1c-3.5-8.4,0.2-26.3,18-31.4c5.3-1.6,25.6-5.6,38.4,16.9h-12.8c-2.8-5.5-14.9-19.1-26.7-14
		c-4.8,2.1-8.2,13.7-6.9,20.7c0.9,5.9,2,5.9,8.9,7.5c13.3,3.1,19.9-0.1,29.9,5.1C494.5,426.7,485.5,453.6,471.5,459.9z"/>
</g>
<g>
	<path class="st1" d="M103.5,117.2c0,2-1,3-2.9,3H86.3c-1.9,0-2.9-1-2.9-3c0-2,1-3,2.9-3h14.3C102.5,114.2,103.5,115.2,103.5,117.2z
		 M132.8,117.2c0,2-1,3-2.9,3h-14.3c-1.9,0-2.9-1-2.9-3c0-2,1-3,2.9-3h14.3C131.8,114.2,132.8,115.2,132.8,117.2z M162.1,117.2
		c0,2-1,3-2.9,3h-14.3c-1.9,0-2.9-1-2.9-3c0-2,1-3,2.9-3h14.3C161.1,114.2,162.1,115.2,162.1,117.2z M216.5,117.2
		c0,0.6-0.4,1.1-1.2,1.5c-8.6,3.6-15.4,8.2-20.3,14c-4.6,5.5-7.9,11.8-9.7,18.9c-0.1,0.8-0.4,1.9-0.8,3.4c-0.3,1-1.5,1.5-3.7,1.5
		c-1.6,0-2.3-0.7-2.3-2.1c0-0.2,0.2-1.1,0.5-2.6c3.2-13.3,10.2-23.9,21.1-31.6h-25.9c-1.9,0-2.9-1-2.9-3c0-2,1-3,2.9-3h25.9
		c-10.9-8-18-18.5-21.1-31.6c-0.3-1.5-0.5-2.3-0.5-2.6c0-1.4,1.2-2.1,3.7-2.1c1.2,0,2,0.5,2.3,1.5c0.2,0.8,0.5,1.9,0.8,3.4
		c1.8,7,5.1,13.3,9.7,18.9c4.7,5.5,10.3,9.7,16.8,12.5c0.9,0.3,1.9,0.7,2.8,1C215.9,115.8,216.5,116.5,216.5,117.2z"/>
</g>
</svg>
