<svg xmlns="http://www.w3.org/2000/svg" viewBox="0 0 600.9 566.9"><defs><style>.a{fill:#010101;}.b{isolation:isolate;}.c{fill:#fff;}</style></defs><path class="a" d="M0,0H600.9V566.9H0Z"/><g class="b"><path class="c" d="M446.72,133.67c-4.91,19-15,25.06-24.22,25.06-14.83,0-22.66-13.89-22.66-13.89v13.89h-9.4V42.83h9.71V95.45s5.22-16.7,15.14-19.42C428.45,72.38,458.31,89,446.72,133.67Zm-39.05,6.16c6.16,11.8,24.54,23.18,33.62,1.25,8.67-26.41-5.74-51.37-20.26-56-16.91-5.33-21.19,16.18-21.19,16.18v38.53Z"/><path class="c" d="M523.54,137.53c-1.46,3.87-9.4,19.53-24.64,21.2-17.65,1.88-31.53-8.67-37.9-28.71-6.79-21.41,3.13-45.49,16-51.75a32.34,32.34,0,0,1,29.34.48c9.09,4.59,14,14,14,14C530.33,109.24,527.09,127.93,523.54,137.53Zm-14.09-42.7c-3.87-8.25-13.16-18.59-28.09-14.62-28.09,7.52-10.24,83.85,23.18,73.51,3.13-.94,6.58-4.18,8.77-9.82C523.12,119.47,509.45,94.83,509.45,94.83Z"/></g><g class="b"><path class="c" d="M482.38,144.78V260.26H473V246.79a33.55,33.55,0,0,1-7.83,8.67c-4.28,3.76-7.73,4.8-12.22,4.8-10.13.11-19-7.2-22.34-11.69-3.76-5-20.57-28.4-4.49-58.37,5-8,10.23-11.07,16.6-12.74,7.62-2.09,22.45,3,30.07,15.87V144.78ZM473,201.37v-4.7h-9.92c-2.3-3.34-6.26-9.39-11.59-11.48-10.23-4.28-18.69-1.36-23.08,7.31,0,0-10.12,16.29,7.52,45.94,1.78,2.92,6.79,9.19,13.78,12.32,7.52,3.55,17.13,3.55,21.51-7.73A55.84,55.84,0,0,0,473,230.82Z"/></g><g class="b"><path class="c" d="M427,260.93a5.47,5.47,0,0,1-2.5,4.59h-5.74a5.5,5.5,0,0,1,2.92-10.12A5.38,5.38,0,0,1,427,260.93ZM417,361.8V278.26h9.5V361.8Z"/><path class="c" d="M451.41,317.21a75.12,75.12,0,0,0,9.4,22.87c1.67,2.82,9.08,14.3,22.45,14.3C493,354.38,494,342.9,494,335h6.89c-1.77,11-7.41,26.84-23.17,26.84-10.13,0-18.9-7.21-22.25-11.59-3.75-5.12-20.57-28.51-4.59-58.48,5-8,10.34-11.06,16.71-12.84,7.51-2,24.85,2.19,31.43,19.32,2.5,6.89,2.82,16.91,2.29,19Zm-.62-3.55h42c-.1-4.39-4.18-22.14-16.39-27-10.34-4.08-18.69-1.26-23.08,7.31C453.29,293.93,449,300.82,450.79,313.66Z"/></g><g class="b"><path class="c" d="M471.51,459.88c-28.82,12.85-44.27-12.84-47.09-19.63h14.2c2.4,5.33,7.52,20.68,25.48,20.68,4.49,0,16.18-13.16,8.66-39.37-3.13-10.65-39.05,5.85-45.1-9.08-3.45-8.35.2-26.31,17.95-31.43,5.33-1.57,25.59-5.64,38.43,16.92H471.2c-2.82-5.54-14.93-19.11-26.73-14-4.81,2.09-8.25,13.68-6.9,20.68.94,5.85,2,5.85,8.88,7.52,13.26,3.13,19.94-.11,29.86,5.11C494.48,426.68,485.5,453.62,471.51,459.88Z"/></g></svg>