<svg xmlns="http://www.w3.org/2000/svg" viewBox="0 0 600.9 566.9"><defs><style>.a{fill:#010101;}.b{isolation:isolate;}.c{fill:#fff;}</style></defs><path class="a" d="M0,0H600.9V566.9H0Z"/><g class="b"><path class="c" d="M448.89,99.21c-1.77,10.86-7.41,26.84-23.07,26.84-10.24,0-19-7.21-22.35-11.7C399.71,109.24,382.9,86,398.88,56c5.11-8.15,10.33-11.07,16.7-12.85,7.62-2.08,24.85,2.09,31.43,19.32H435.84c-2.3-3.34-6.27-9.4-11.49-11.59-10.33-4.18-18.69-1.25-23.07,7.31,0,0-10.24,16.29,7.52,46.05,1.67,2.92,9.08,14.3,22.44,14.3,9.72,0,10.76-11.48,10.76-19.32Z"/><path class="c" d="M517.36,104.85c-1.46,3.87-9.4,19.53-24.64,21.2-17.65,1.88-31.54-8.67-37.91-28.72-6.78-21.4,3.14-45.48,16-51.74a32.34,32.34,0,0,1,29.34.48c9.09,4.59,14,14,14,14C524.15,76.56,520.91,95.25,517.36,104.85Zm-14.1-42.7c-3.86-8.25-13.15-18.59-28.08-14.62-28.09,7.52-10.24,83.84,23.18,73.51,3.13-.94,6.57-4.18,8.77-9.82C516.94,86.79,503.26,62.15,503.26,62.15Z"/></g><path class="c" d="M487.9,213.9c-1.1,4.2-7,8.6-9.2,10.2a17.48,17.48,0,0,1-12.7,3.4,9.83,9.83,0,0,1-8.3-5.1c-.8.7-1.5,1.2-2,1.6a17.48,17.48,0,0,1-12.7,3.4c-5-.3-9.5-3.8-9.5-10.3V111.7h9.3v90.8c0,7.8-1.6,19.1,8.7,20.8,1.3-.1,1.9-1.4,3-4.5a60.62,60.62,0,0,0,2.1-7.6V111.7h9.3v90.8c0,7.8-1.6,19.1,8.7,20.8,1.3-.1,1.9-1.4,3-4.5a60.62,60.62,0,0,0,2.1-7.6Z"/><g class="b"><path class="c" d="M404.14,284.53a75.22,75.22,0,0,0,9.4,22.87c1.67,2.82,9.08,14.3,22.45,14.3,9.71,0,10.75-11.48,10.75-19.42h6.9c-1.78,11-7.42,26.84-23.18,26.84-10.13,0-18.9-7.21-22.24-11.59-3.76-5.12-20.57-28.51-4.6-58.48,5-8,10.34-11.07,16.71-12.84,7.52-2,24.85,2.19,31.43,19.32,2.5,6.89,2.82,16.91,2.29,19Zm-.62-3.55h42c-.1-4.39-4.17-22.14-16.39-27-10.34-4.08-18.69-1.26-23.08,7.31C406,261.25,401.74,268.14,403.52,281Z"/><path class="c" d="M520.15,302.28c-1.77,10.86-7.41,26.84-23.07,26.84-10.24,0-19-7.21-22.35-11.7-3.76-5.11-20.57-28.4-4.59-58.37,5.11-8.14,10.34-11.07,16.7-12.84,7.63-2.09,24.86,2.09,31.43,19.32H507.1c-2.3-3.34-6.26-9.4-11.49-11.59-10.33-4.18-18.69-1.26-23.07,7.31,0,0-10.23,16.28,7.52,46,1.67,2.93,9.08,14.31,22.45,14.31,9.71,0,10.75-11.49,10.75-19.32Z"/></g><g class="b"><path class="c" d="M429.83,350.19H416V346.7h13.88V324.88h9.72V346.8H457.4v3.76H439.55v69.65c0,1.77-.11,3.13.83,4.17a9.27,9.27,0,0,0,5.12,2.2c1.25-.11,1.88-1.36,3-4.49a50.22,50.22,0,0,0,2.08-7.73l8.46,2.82c-1.15,4.07-7,8.67-9.29,10.23-5.43,3.76-8.46,3.24-10,3.24-5.74-.73-9.92-5.22-9.92-18.17Z"/><path class="c" d="M485.38,329.78a5.5,5.5,0,0,1-2.5,4.6h-5.75a5.51,5.51,0,0,1,2.93-10.13A5.39,5.39,0,0,1,485.38,329.78Zm-10,100.87V347.12h9.5v83.53Z"/></g><g class="b"><path class="c" d="M443.1,480.08c-6.48,18.79-20.26,48.66-20.26,48.66l-7.52,3.44-23.91-78.94,9-4.28L420,516.62l11.17-23.91c6.27-15.14,25-32.78-3.34-44l9.71-3.76C446.33,452.41,448.63,464.42,443.1,480.08Z"/><path class="c" d="M468.36,487.6c1.35,6.47,4.17,14.09,9.39,22.86,1.67,2.82,9.09,14.31,22.45,14.31,9.71,0,10.76-11.49,10.76-19.42h6.89c-1.78,11-7.41,26.83-23.18,26.83-10.13,0-18.9-7.2-22.24-11.59-3.76-5.12-20.57-28.5-4.6-58.47,5-8,10.34-11.07,16.71-12.85,7.52-2,24.85,2.2,31.43,19.32,2.51,6.89,2.82,16.92,2.3,19Zm-.63-3.55h42c-.1-4.39-4.17-22.14-16.39-27.05-10.34-4.07-18.69-1.25-23.07,7.31C470.24,464.31,466,471.2,467.73,484.05Z"/></g></svg>