<?xml version="1.0" encoding="utf-8"?>
<!-- Generator: Adobe Illustrator 26.1.0, SVG Export Plug-In . SVG Version: 6.00 Build 0)  -->
<svg version="1.1" id="Layer_1" xmlns="http://www.w3.org/2000/svg" xmlns:xlink="http://www.w3.org/1999/xlink" x="0px" y="0px"
	 viewBox="0 0 600.9 566.9" style="enable-background:new 0 0 600.9 566.9;" xml:space="preserve">
<style type="text/css">
	.st0{fill:#010101;}
	.st1{fill:#FFFFFF;}
</style>
<path class="st0" d="M0,0h600.9v566.9H0V0z"/>
<g>
	<path class="st1" d="M448.9,99.2c-1.8,10.9-7.4,26.8-23.1,26.8c-10.2,0-19-7.2-22.4-11.7c-3.8-5.1-20.6-28.4-4.6-58.4
		c5.1-8.2,10.3-11.1,16.7-12.8c7.6-2.1,24.9,2.1,31.4,19.3h-11.2c-2.3-3.3-6.3-9.4-11.5-11.6c-10.3-4.2-18.7-1.2-23.1,7.3
		c0,0-10.2,16.3,7.5,46.1c1.7,2.9,9.1,14.3,22.4,14.3c9.7,0,10.8-11.5,10.8-19.3L448.9,99.2z"/>
	<path class="st1" d="M517.4,104.8c-1.5,3.9-9.4,19.5-24.6,21.2c-17.6,1.9-31.5-8.7-37.9-28.7c-6.8-21.4,3.1-45.5,16-51.7
		c9.3-4.5,20.2-4.4,29.3,0.5c9.1,4.6,14,14,14,14C524.2,76.6,520.9,95.2,517.4,104.8z M503.3,62.1c-3.9-8.2-13.1-18.6-28.1-14.6
		c-28.1,7.5-10.2,83.8,23.2,73.5c3.1-0.9,6.6-4.2,8.8-9.8C516.9,86.8,503.3,62.2,503.3,62.1L503.3,62.1z"/>
</g>
<path class="st1" d="M487.9,213.9c-1.1,4.2-7,8.6-9.2,10.2c-3.6,2.7-8.2,4-12.7,3.4c-3.5-0.1-6.6-2.1-8.3-5.1
	c-0.8,0.7-1.5,1.2-2,1.6c-3.6,2.7-8.2,4-12.7,3.4c-5-0.3-9.5-3.8-9.5-10.3V111.7h9.3v90.8c0,7.8-1.6,19.1,8.7,20.8
	c1.3-0.1,1.9-1.4,3-4.5c0.9-2.5,1.6-5,2.1-7.6v-99.5h9.3v90.8c0,7.8-1.6,19.1,8.7,20.8c1.3-0.1,1.9-1.4,3-4.5c0.9-2.5,1.6-5,2.1-7.6
	L487.9,213.9z"/>
<g>
	<path class="st1" d="M404.1,284.5c1.9,8.1,5,15.8,9.4,22.9c1.7,2.8,9.1,14.3,22.5,14.3c9.7,0,10.8-11.5,10.8-19.4h6.9
		c-1.8,11-7.4,26.8-23.2,26.8c-10.1,0-18.9-7.2-22.2-11.6c-3.8-5.1-20.6-28.5-4.6-58.5c5-8,10.3-11.1,16.7-12.8
		c7.5-2,24.9,2.2,31.4,19.3c2.5,6.9,2.8,16.9,2.3,19L404.1,284.5z M403.5,281h42c-0.1-4.4-4.2-22.1-16.4-27
		c-10.3-4.1-18.7-1.3-23.1,7.3C406,261.2,401.7,268.1,403.5,281L403.5,281z"/>
	<path class="st1" d="M520.2,302.3c-1.8,10.9-7.4,26.8-23.1,26.8c-10.2,0-19-7.2-22.4-11.7c-3.8-5.1-20.6-28.4-4.6-58.4
		c5.1-8.1,10.3-11.1,16.7-12.8c7.6-2.1,24.9,2.1,31.4,19.3h-11.2c-2.3-3.3-6.3-9.4-11.5-11.6c-10.3-4.2-18.7-1.3-23.1,7.3
		c0,0-10.2,16.3,7.5,46c1.7,2.9,9.1,14.3,22.5,14.3c9.7,0,10.8-11.5,10.8-19.3L520.2,302.3z"/>
</g>
<g>
	<path class="st1" d="M429.8,350.2H416v-3.5h13.9v-21.8h9.7v21.9h17.8v3.8h-17.9v69.6c0,1.8-0.1,3.1,0.8,4.2c1.4,1.2,3.2,2,5.1,2.2
		c1.2-0.1,1.9-1.4,3-4.5c0.9-2.5,1.6-5.1,2.1-7.7l8.5,2.8c-1.1,4.1-7,8.7-9.3,10.2c-5.4,3.8-8.5,3.2-10,3.2
		c-5.7-0.7-9.9-5.2-9.9-18.2L429.8,350.2z"/>
	<path class="st1" d="M485.4,329.8c0,1.9-0.9,3.6-2.5,4.6h-5.8c-2.6-1.7-3.3-5.1-1.6-7.6c1-1.5,2.7-2.5,4.5-2.5
		C483,324.3,485.4,326.7,485.4,329.8C485.4,329.7,485.4,329.8,485.4,329.8z M475.4,430.6v-83.5h9.5v83.5H475.4z"/>
</g>
<g>
	<path class="st1" d="M443.1,480.1c-6.5,18.8-20.3,48.7-20.3,48.7l-7.5,3.4l-23.9-78.9l9-4.3l19.6,67.7l11.2-23.9
		c6.3-15.1,25-32.8-3.3-44l9.7-3.8C446.3,452.4,448.6,464.4,443.1,480.1z"/>
	<path class="st1" d="M468.4,487.6c1.4,6.5,4.2,14.1,9.4,22.9c1.7,2.8,9.1,14.3,22.5,14.3c9.7,0,10.8-11.5,10.8-19.4h6.9
		c-1.8,11-7.4,26.8-23.2,26.8c-10.1,0-18.9-7.2-22.2-11.6c-3.8-5.1-20.6-28.5-4.6-58.5c5-8,10.3-11.1,16.7-12.9
		c7.5-2,24.9,2.2,31.4,19.3c2.5,6.9,2.8,16.9,2.3,19L468.4,487.6z M467.7,484.1h42c-0.1-4.4-4.2-22.1-16.4-27
		c-10.3-4.1-18.7-1.2-23.1,7.3C470.2,464.3,466,471.2,467.7,484.1L467.7,484.1z"/>
</g>
<g>
	<path class="st1" d="M217.6,117.2c0,0.9-0.6,1.7-1.8,2.6c-2.1,1.2-5.1,3.1-9.1,5.8c-12.6,9-22.2,20.3-28.9,33.8
		c-0.8,2.2-2.2,5.6-4.2,10c-0.7,1.3-1.6,2-2.6,2c-2.1,0-3.1-1-3.1-2.9c0-1.3,1.2-4.5,3.7-9.5c2-4.1,3.7-7.4,5.1-9.7H87.3
		c-1.8,0-2.7-1-2.7-3c0-2,0.9-3,2.7-3h93.5c6.4-9,14.2-16.7,23.3-23.1H87.6c-2,0-3-1-3-3c0-2,1-3,3-3H204c-9-6.3-16.7-14-23.2-23.1
		H87.3c-1.8,0-2.7-1-2.7-3c0-2,0.9-3,2.7-3h89.5c-1.4-2.3-3.1-5.5-5.1-9.6c-2.5-5.1-3.7-8.3-3.7-9.6c0-1.9,1-2.9,3.1-2.9
		c1.1,0,2,0.7,2.6,2c0.9,2.2,2.3,5.5,4.2,9.9c6.8,13.7,16.4,25,28.9,34c2.1,1.2,5.1,3.1,9.1,5.7C217,115.5,217.6,116.4,217.6,117.2z
		"/>
</g>
</svg>
