<?xml version="1.0" encoding="utf-8"?>
<!-- Generator: Adobe Illustrator 26.1.0, SVG Export Plug-In . SVG Version: 6.00 Build 0)  -->
<svg version="1.1" id="Layer_1" xmlns="http://www.w3.org/2000/svg" xmlns:xlink="http://www.w3.org/1999/xlink" x="0px" y="0px"
	 viewBox="0 0 600.9 566.9" style="enable-background:new 0 0 600.9 566.9;" xml:space="preserve">
<style type="text/css">
	.st0{fill:#010101;}
	.st1{fill:#FFFFFF;}
</style>
<path class="st0" d="M0,0h600.9v566.9H0V0z"/>
<g>
	<path class="st1" d="M459.2,99.2c-1.8,10.9-7.4,26.8-23.1,26.8c-10.2,0-19-7.2-22.3-11.7c-3.8-5.1-20.6-28.4-4.6-58.4
		c5.1-8.2,10.3-11.1,16.7-12.8c7.6-2.1,24.9,2.1,31.4,19.3h-11.2c-2.3-3.3-6.3-9.4-11.5-11.6c-10.3-4.2-18.7-1.2-23.1,7.3
		c0,0-10.2,16.3,7.5,46.1c1.7,2.9,9.1,14.3,22.5,14.3c9.7,0,10.8-11.5,10.8-19.3L459.2,99.2z"/>
	<path class="st1" d="M516.1,61.8h-13c-0.5-6.6-2.7-15.5-8.4-15.5c-13.4,0-17.3,12.7-17.3,12.7v67h-9.3V51.3
		c3.1,0,10.9-8.7,17.9-8.7c9,0,18.7,2.1,27.3,13.6C514.4,58,515.3,59.9,516.1,61.8z"/>
</g>
<g>
	<path class="st1" d="M461.6,126.7c0,1.9-0.9,3.6-2.5,4.6h-5.7c-2.6-1.5-3.4-4.9-1.9-7.5c1.5-2.6,4.9-3.4,7.5-1.9
		C460.7,123,461.7,124.8,461.6,126.7z M451.6,227.6v-83.5h9.5v83.5H451.6z"/>
</g>
<g>
	<path class="st1" d="M429.9,248.6H416v-3.5h13.9v-21.8h9.7v21.9h17.9v3.7h-17.9v69.6c0,1.8-0.1,3.1,0.8,4.2c1.4,1.2,3.2,2,5.1,2.2
		c1.2-0.1,1.9-1.4,3-4.5c0.9-2.5,1.6-5.1,2.1-7.7l8.5,2.8c-1.1,4.1-7,8.7-9.3,10.2c-5.4,3.8-8.5,3.2-10,3.2
		c-5.8-0.7-9.9-5.2-9.9-18.2L429.9,248.6z"/>
	<path class="st1" d="M485.4,228.2c0,1.9-0.9,3.6-2.5,4.6h-5.8c-2.5-1.7-3.3-5.1-1.6-7.6c1-1.5,2.7-2.5,4.5-2.5
		C483.1,222.8,485.4,225.2,485.4,228.2C485.4,228.2,485.4,228.2,485.4,228.2z M475.4,329.1v-83.5h9.5v83.5H475.4z"/>
</g>
<g>
	<path class="st1" d="M393.8,371.9c4.9-19.2,15.2-25.3,24.5-25.3c15,0,22.9,14.1,22.9,14.1v-13h9.5v116.1h-9.8v-53.2
		c0,0-5.3,16.9-15.4,19.6C412.3,433.8,382.2,417.1,393.8,371.9z M419.7,420.9c17.1,5.4,21.4-16.4,21.4-16.4v-35.7h-6.6
		c-4.5-12.8-25.4-28.3-35.3-4.4C390.5,391.1,405.1,416.2,419.7,420.9z"/>
</g>
<g>
	<path class="st1" d="M467.9,411.6c-0.9-4.8-0.7-9.9-0.7-13.4v-51.2h9.7v33.4c-0.6,4-6.7,21.2-5.3,25c2.6,7.7,23,21.6,30.6,18.6
		c3.2-1.4,5.6-9.1,7.4-15.4v-61.6h9.8v83.5h-9.8v-15.6c-1.4,4.9-3.8,11.1-7.7,13.3c-7,4-15.7,2.9-23.5-2.4
		C474.5,423.3,469.5,419,467.9,411.6z"/>
</g>
<g>
	<path class="st1" d="M434.7,487.6c1.4,6.5,4.2,14.1,9.4,22.9c1.7,2.8,9.1,14.3,22.5,14.3c9.7,0,10.8-11.5,10.8-19.4h6.9
		c-1.8,11-7.4,26.8-23.2,26.8c-10.1,0-18.9-7.2-22.2-11.6c-3.8-5.1-20.6-28.5-4.6-58.5c5-8,10.3-11.1,16.7-12.9
		c7.5-2,24.9,2.2,31.4,19.3c2.5,6.9,2.8,16.9,2.3,19L434.7,487.6z M434.1,484.1h42c-0.1-4.4-4.2-22.1-16.4-27
		c-10.3-4.1-18.7-1.2-23.1,7.3C436.6,464.3,432.3,471.2,434.1,484.1L434.1,484.1z"/>
</g>
<g>
	<path class="st1" d="M216.9,117.2c0,0.7-0.4,1.2-1.1,1.5s-1.9,0.7-3.4,1.3c-9.3,4.1-16.5,10.5-21.7,19.4c-2,3.4-3.9,8.6-5.8,15.6
		c-0.1,0.3-0.3,0.7-0.6,1s-1.6,0.4-3.9,0.4c-1,0-1.5-0.7-1.5-2c0-0.1,0.2-1,0.6-2.6c3.2-13.4,10.2-23.9,21-31.6h-43.3
		c-0.8,13.9-6.3,25.7-16.4,35.4s-22.3,14.6-36.3,14.6c-14,0-26.1-4.8-36.4-14.5C58,146,52.5,134.2,51.7,120.2H16.4
		c-1.9,0-2.9-1-2.9-3c0-2,1-3,2.9-3h35.2c0.8-14,6.3-25.8,16.4-35.4s22.3-14.5,36.4-14.5c14.1,0,26.2,4.8,36.3,14.5
		c10.2,9.7,15.6,21.5,16.4,35.4h43.3c-7.5-5.4-13.3-12.5-17.4-21.1c-2.8-5.9-4.2-10.3-4.2-13.1c0-1.2,0.5-1.9,1.5-2.1
		c-0.1,0,0.9,0.1,3,0.1c0.7,0,1.2,0.5,1.5,1.4c0.7,2.7,2,6.7,4,11.9c5.1,10.6,12.9,18.2,23.2,22.7c1,0.3,2,0.7,2.9,1
		C216.3,115.7,216.9,116.4,216.9,117.2z M101.5,114.2V70.4c-11.8,0.8-21.8,5.3-30.2,13.7s-12.9,18.4-13.6,30.2H101.5z M101.5,164.1
		v-43.9H57.7C58.5,132,63,142,71.4,150.4S89.8,163.3,101.5,164.1z M151.3,114.2c-0.8-11.8-5.3-21.8-13.7-30.2
		c-8.3-8.4-18.4-12.9-30.1-13.7v43.9H151.3z M151.3,120.2h-43.8v43.9c11.7-0.7,21.7-5.3,30.1-13.7C145.9,142,150.5,132,151.3,120.2z
		"/>
</g>
</svg>
