<svg xmlns="http://www.w3.org/2000/svg" viewBox="0 0 600.9 566.9"><defs><style>.a{fill:#010101;}.b{isolation:isolate;}.c{fill:#fff;}</style></defs><path class="a" d="M0,0H600.9V566.9H0Z"/><g class="b"><path class="c" d="M459.2,99.21c-1.78,10.86-7.42,26.84-23.08,26.84-10.23,0-19-7.21-22.34-11.7C410,109.24,393.21,86,409.18,56c5.12-8.15,10.34-11.07,16.71-12.85,7.62-2.08,24.85,2.09,31.43,19.32H446.15c-2.3-3.34-6.27-9.4-11.49-11.59-10.34-4.18-18.69-1.25-23.08,7.31,0,0-10.23,16.29,7.52,46.05,1.67,2.92,9.09,14.3,22.45,14.3,9.71,0,10.76-11.48,10.76-19.32Z"/><path class="c" d="M516.1,61.83H503.05c-.52-6.57-2.71-15.55-8.35-15.55C481.33,46.28,477.36,59,477.36,59v67h-9.29V51.29c3.13,0,10.86-8.67,17.86-8.67,9,0,18.69,2.09,27.35,13.57A31.8,31.8,0,0,1,516.1,61.83Z"/></g><g class="b"><path class="c" d="M461.65,126.72a5.46,5.46,0,0,1-2.51,4.59H453.4a5.45,5.45,0,1,1,8.25-4.59Zm-10,100.86V144.05h9.5v83.53Z"/></g><g class="b"><path class="c" d="M429.86,248.65H416v-3.48h13.89V223.34h9.71v21.93h17.85V249H439.57v69.64c0,1.78-.11,3.14.83,4.18a9.25,9.25,0,0,0,5.12,2.19c1.25-.1,1.88-1.35,3-4.49a50.39,50.39,0,0,0,2.09-7.72l8.45,2.82c-1.15,4.07-7,8.66-9.29,10.23-5.43,3.76-8.46,3.24-10,3.24-5.75-.73-9.92-5.23-9.92-18.17Z"/><path class="c" d="M485.4,228.25a5.47,5.47,0,0,1-2.5,4.59h-5.75a5.51,5.51,0,0,1,2.93-10.12A5.38,5.38,0,0,1,485.4,228.25Zm-10,100.87V245.58h9.5v83.54Z"/></g><g class="b"><path class="c" d="M393.78,371.86c4.91-19.21,15.25-25.27,24.54-25.27,15,0,22.87,14.1,22.87,14.1V347.64h9.5V463.75h-9.82V410.5s-5.32,16.91-15.35,19.63C412.26,433.78,382.19,417.07,393.78,371.86Zm25.9,49.08c17.12,5.43,21.4-16.39,21.4-16.39V368.83H434.5c-4.49-12.84-25.37-28.29-35.29-4.38C390.54,391.08,405.06,416.24,419.68,420.94Z"/></g><g class="b"><path class="c" d="M467.89,411.64c-.94-4.8-.73-9.91-.73-13.36V347.12h9.71v33.41c-.63,4-6.68,21.2-5.33,25,2.61,7.73,23,21.62,30.6,18.59,3.23-1.36,5.64-9.08,7.41-15.35v-61.6h9.82v83.53h-9.82V415.09c-1.36,4.91-3.76,11.07-7.73,13.26-7,4-15.66,2.93-23.49-2.4C474.47,423.34,469.46,419,467.89,411.64Z"/></g><g class="b"><path class="c" d="M434.71,487.6c1.35,6.47,4.17,14.09,9.39,22.86,1.67,2.82,9.09,14.31,22.45,14.31,9.71,0,10.76-11.49,10.76-19.42h6.89c-1.78,11-7.42,26.83-23.18,26.83-10.13,0-18.9-7.2-22.24-11.59-3.76-5.12-20.57-28.5-4.6-58.47,5-8,10.34-11.07,16.71-12.85,7.52-2,24.85,2.2,31.43,19.32,2.5,6.89,2.82,16.92,2.3,19Zm-.63-3.55h42c-.1-4.39-4.17-22.14-16.39-27.05-10.34-4.07-18.69-1.25-23.08,7.31C436.58,464.31,432.3,471.2,434.08,484.05Z"/></g></svg>