<?xml version="1.0" encoding="utf-8"?>
<!-- Generator: Adobe Illustrator 26.1.0, SVG Export Plug-In . SVG Version: 6.00 Build 0)  -->
<svg version="1.1" id="Layer_1" xmlns="http://www.w3.org/2000/svg" xmlns:xlink="http://www.w3.org/1999/xlink" x="0px" y="0px"
	 viewBox="0 0 600.9 566.9" style="enable-background:new 0 0 600.9 566.9;" xml:space="preserve">
<style type="text/css">
	.st0{fill:#010101;}
	.st1{fill:#FFFFFF;}
</style>
<path class="st0" d="M0,0h600.9v566.9H0V0z"/>
<g>
	<path class="st1" d="M404.1,81.5c1.4,6.5,4.2,14.1,9.4,22.9c1.7,2.8,9.1,14.3,22.5,14.3c9.7,0,10.8-11.5,10.8-19.4h6.9
		c-1.8,11-7.4,26.8-23.2,26.8c-10.1,0-18.9-7.2-22.2-11.6c-3.8-5.1-20.6-28.5-4.6-58.5c5-8,10.3-11.1,16.7-12.8
		c7.5-2,24.9,2.2,31.4,19.3c2.5,6.9,2.8,16.9,2.3,19L404.1,81.5z M403.5,77.9h42c-0.1-4.4-4.2-22.1-16.4-27
		c-10.3-4.1-18.7-1.2-23.1,7.3C406,58.2,401.7,65.1,403.5,77.9z"/>
	<path class="st1" d="M520.1,99.2c-1.8,10.9-7.4,26.8-23.1,26.8c-10.2,0-19-7.2-22.3-11.7c-3.8-5.1-20.6-28.4-4.6-58.4
		c5.1-8.2,10.3-11.1,16.7-12.8c7.6-2.1,24.9,2.1,31.4,19.3H507c-2.3-3.3-6.3-9.4-11.5-11.6c-10.3-4.2-18.7-1.2-23.1,7.3
		c0,0-10.2,16.3,7.5,46.1c1.7,2.9,9.1,14.3,22.5,14.3c9.7,0,10.8-11.5,10.8-19.3L520.1,99.2z"/>
</g>
<g>
	<path class="st1" d="M448.1,206.4c-1.5,3.9-9.4,19.5-24.6,21.2c-17.6,1.9-31.5-8.7-37.9-28.7c-6.8-21.4,3.1-45.5,16-51.8
		c9.3-4.5,20.2-4.4,29.3,0.5c9.1,4.6,14,14,14,14C454.9,178.1,451.7,196.8,448.1,206.4z M434,163.7c-3.9-8.2-13.1-18.6-28.1-14.6
		c-28.1,7.5-10.2,83.9,23.2,73.5c3.1-0.9,6.6-4.2,8.8-9.8C447.7,188.3,434,163.7,434,163.7z"/>
	<path class="st1" d="M518.7,162.8c0.9,4.8,0.7,9.9,0.7,13.4v51.4h-9.9v-33.7c0.6-4,6.9-21.1,5.6-24.9c-2.7-7.7-23-21.5-30.5-18.5
		c-3.2,1.4-5.6,9-7.4,15.2v61.8h-9.9v-83.5h9.9v15.4c1.2-4.9,3.6-11,7.6-13.3c7-3.9,15.7-2.8,23.5,2.4
		C512.2,151.2,517.2,155.6,518.7,162.8z"/>
</g>
<g>
	<path class="st1" d="M430,307.9c-1.5,3.9-9.4,19.5-24.6,21.2c-17.6,1.9-31.5-8.7-37.9-28.7c-6.8-21.4,3.1-45.5,16-51.8
		c9.3-4.5,20.2-4.4,29.3,0.5c9.1,4.6,14,14,14,14C436.8,279.6,433.5,298.3,430,307.9z M415.9,265.2c-3.9-8.2-13.2-18.6-28.1-14.6
		c-28.1,7.5-10.2,83.8,23.2,73.5c3.1-0.9,6.6-4.2,8.8-9.8C429.5,289.9,415.9,265.2,415.9,265.2L415.9,265.2z"/>
	<path class="st1" d="M537.4,277.7v51.4h-9.9v-33.7c0.6-4,7-21.1,5.6-24.9c-2.6-7.7-23-21.5-30.5-18.5c-2.5,1-5,22.3-5,25.8v51.3
		H488v-33.7c0.6-3.9,6.7-21.1,5.4-24.9c-2.7-7.6-23-21.5-30.5-18.4c-3.2,1.2-5.6,9-7.5,15.2v61.7h-9.7v-83.5h9.7v15.6
		c1.4-4.9,3.8-11.1,7.7-13.3c7-3.9,15.7-2.8,23.4,2.4c2.6,1.7,4.6,2.7,6.8,6.3c0,0,6-6.6,9.7-8.7c7-4,15.6-2.9,23.4,2.4
		c3.8,2.5,8.8,6.9,10.2,14.2C537.3,268.9,537.6,273.3,537.4,277.7z"/>
</g>
<g>
	<path class="st1" d="M478.5,347v83.6h-0.1c-0.4,19.9-4.6,32.2-11.8,37.2c-1.2,1-2.6,1.8-4,2.4c-1.7,0.5-4.4,2-10.9,0
		c-2.6-0.8-9.8-3.5-12.2-7.3l7.4-5.2c1.4,2.4,2.9,4.7,4.5,6.9c2,2.7,3,3.8,4.3,3.5c14.1-3.1,12.7-53.6,12.7-53.6
		c-1.4,4.8-4.4,11.6-8.4,13.8c-7,4-15.6,2.8-23.4-2.4c-3.9-2.6-8.8-7-10.2-14.2c-1-4.8-0.8-9.9-0.8-13.4V347h9.6v33.7
		c0,9-6.3,20.9-5.3,24.9c2.2,9.7,23,21.5,30.5,18.4c3.2-1.4,6.3-9,8-15.2V347H478.5z"/>
</g>
<g>
	<path class="st1" d="M216.5,117.2c0,0.7-0.6,1.3-1.8,1.8c-0.9,0.3-1.8,0.6-2.7,1c-9.2,4-16.5,10.4-21.7,19.4
		c-1.3,2.2-3.2,7.4-5.8,15.6c-0.1,0.4-0.3,0.8-0.6,1c-0.4,0.3-1.1,0.5-2,0.5c-2.3,0-3.4-0.7-3.4-2.1c0-0.2,0.2-1.1,0.6-2.6
		c3.4-13.5,10.4-24,21-31.6h-113v36.4c0,3-1,4.5-3,4.5c-2,0-3-1.5-3-4.5V77.8c0-3,1-4.5,3-4.5c2,0,3,1.5,3,4.5v36.5h113
		c-7.5-5.4-13.3-12.4-17.4-21.1c-2.8-5.8-4.2-10.2-4.2-13.1c0-1.4,0.8-2.1,2.3-2.1c0.2,0,0.6,0,1.1,0c0.5,0,0.9,0.1,1.1,0.1
		c0.7,0,1.2,0.5,1.5,1.4c0.7,2.7,2,6.7,4,11.9c5.2,10.8,12.9,18.4,23.2,22.7c1,0.3,2,0.7,2.9,1C215.9,115.7,216.5,116.4,216.5,117.2
		z"/>
</g>
</svg>
