<svg xmlns="http://www.w3.org/2000/svg" viewBox="0 0 600.9 566.9"><defs><style>.a{fill:#010101;}.b{isolation:isolate;}.c{fill:#fff;}</style></defs><path class="a" d="M0,0H600.9V566.9H0Z"/><g class="b"><path class="c" d="M404.09,81.46c1.35,6.48,4.17,14.1,9.39,22.87,1.68,2.82,9.09,14.31,22.45,14.31,9.71,0,10.76-11.49,10.76-19.43h6.89c-1.77,11-7.41,26.84-23.18,26.84-10.13,0-18.9-7.21-22.24-11.59C404.4,109.34,387.59,86,403.57,56c5-8,10.33-11.07,16.7-12.85,7.52-2,24.85,2.2,31.43,19.32,2.51,6.89,2.82,16.92,2.3,19Zm-.63-3.55h42c-.11-4.38-4.18-22.13-16.4-27-10.33-4.07-18.69-1.25-23.07,7.31C406,58.18,401.69,65.07,403.46,77.91Z"/><path class="c" d="M520.1,99.21c-1.78,10.86-7.42,26.84-23.08,26.84-10.23,0-19-7.21-22.34-11.7-3.76-5.11-20.57-28.4-4.6-58.36,5.12-8.15,10.34-11.07,16.71-12.85,7.62-2.08,24.85,2.09,31.43,19.32H507.05c-2.3-3.34-6.27-9.4-11.49-11.59-10.34-4.18-18.69-1.25-23.08,7.31,0,0-10.23,16.29,7.52,46.05,1.67,2.92,9.09,14.3,22.45,14.3,9.71,0,10.76-11.48,10.76-19.32Z"/></g><g class="b"><path class="c" d="M448.13,206.39c-1.46,3.86-9.4,19.52-24.64,21.19-17.65,1.88-31.54-8.66-37.91-28.71-6.78-21.41,3.14-45.48,16-51.75a32.37,32.37,0,0,1,29.34.48c9.09,4.59,14,14,14,14C454.92,178.09,451.68,196.78,448.13,206.39ZM434,163.68c-3.86-8.25-13.15-18.59-28.08-14.62-28.09,7.52-10.24,83.85,23.18,73.51,3.13-.94,6.57-4.18,8.77-9.81C447.71,188.32,434,163.68,434,163.68Z"/><path class="c" d="M518.74,162.84c.94,4.81.73,9.92.73,13.37v51.37h-9.92V193.86c.63-4,6.89-21.1,5.64-24.85-2.72-7.73-23-21.51-30.49-18.49-3.24,1.36-5.64,9-7.41,15.25v61.81h-9.92V144.05h9.92V159.5c1.25-4.9,3.65-11,7.62-13.26,7-3.86,15.66-2.82,23.49,2.4C512.16,151.25,517.17,155.64,518.74,162.84Z"/></g><g class="b"><path class="c" d="M430,307.92c-1.46,3.86-9.4,19.52-24.64,21.2-17.65,1.88-31.53-8.67-37.9-28.72-6.79-21.4,3.13-45.48,16-51.75a32.37,32.37,0,0,1,29.34.48c9.09,4.6,14,14,14,14C436.75,279.62,433.51,298.31,430,307.92Zm-14.09-42.71C412,257,402.71,246.63,387.78,250.6c-28.09,7.51-10.23,83.84,23.18,73.5,3.13-.94,6.58-4.17,8.77-9.81C429.54,289.85,415.87,265.21,415.87,265.21Z"/><path class="c" d="M537.43,277.74v51.38h-9.92V295.39c.63-4,7-21.09,5.64-24.85-2.61-7.73-23-21.51-30.49-18.48-2.51,1-5,22.34-5,25.79v51.27h-9.71V295.39c.62-3.86,6.68-21.09,5.43-24.85-2.72-7.62-23-21.51-30.49-18.38-3.24,1.25-5.64,9-7.52,15.25v61.71h-9.71V245.58h9.71v15.56c1.36-4.91,3.76-11.07,7.73-13.26,7-3.86,15.66-2.82,23.38,2.4,2.62,1.67,4.6,2.72,6.79,6.27,0,0,5.95-6.58,9.71-8.67,7-4,15.56-2.92,23.39,2.4,3.76,2.51,8.77,6.89,10.23,14.2A68.82,68.82,0,0,1,537.43,277.74Z"/></g><g class="b"><path class="c" d="M478.54,347v83.64h-.1c-.42,19.94-4.6,32.16-11.8,37.17a15.58,15.58,0,0,1-4,2.4c-1.67.52-4.39,2-10.86,0-2.61-.83-9.82-3.55-12.22-7.31l7.42-5.22a74.79,74.79,0,0,0,4.49,6.89c2,2.72,3,3.76,4.28,3.45,14.09-3.13,12.74-53.57,12.74-53.57-1.36,4.81-4.39,11.59-8.36,13.79-7,4-15.56,2.82-23.39-2.4-3.86-2.61-8.77-7-10.23-14.21-1-4.8-.83-9.91-.83-13.36V347h9.6v33.73c0,9-6.26,20.88-5.32,24.85,2.19,9.71,23,21.51,30.49,18.38,3.23-1.36,6.26-9,8-15.25V347Z"/></g></svg>