<svg xmlns="http://www.w3.org/2000/svg" viewBox="0 0 600.9 566.9"><defs><style>.a{fill:#010101;}.b{isolation:isolate;}.c{fill:#fff;}</style></defs><path class="a" d="M0,0H600.9V566.9H0Z"/><g class="b"><path class="c" d="M480.81,227.58H471.2V214.11c-3.24,9.5-10.44,13.47-18,13.47a23.42,23.42,0,0,1-14.41-5c-9-7.1-11.8-26.73-.83-33.73,7.72-5.53,31.53-4.59,33.1-12V161.17a16.35,16.35,0,0,0-3.76-9.18c-2.09-2.09-6.27-3.35-10.65-3.87-6-.73-11.59.94-14.83,4.07-1.36,1.26.94,12.74,2.51,14.94l-7.52,3.44c-1.78-3.44-1.26-9-1.26-9,.42-7,6.79-17.23,21.2-17.33,16.08-.11,23.6,11.59,23.91,25.06ZM471,185.82c-3.86,5.32-18.58-.42-24.12,1.56C426.62,195,451.15,239.9,463.06,221c1.77-2.71,2.19-7.72,2.4-12.21h5.64S471.2,185.5,471,185.82Z"/></g><g class="b"><path class="c" d="M453.5,329.12V302.49c0-13.47-11.17-21.09-18.38-13.37-4,4.29-11.17,12-11.17,12v28h-9.81V213.21H424v81.14c22.77-32.9,27.05-32.69,17.13-42l5.22-9.08c8.35,7.72,7.83,11.17,7.1,14.4-1.57,7.31-12,19.11-18.59,28.2,6.06-5.54,15.14-7.83,23.08.73a23,23,0,0,1,5.22,14.09v28.41Z"/><path class="c" d="M494.54,228.25a5.46,5.46,0,0,1-2.51,4.59h-5.74a5.5,5.5,0,0,1,2.92-10.12A5.4,5.4,0,0,1,494.54,228.25Zm-10,100.87V245.58H494v83.54Z"/></g><g class="b"><path class="c" d="M440.25,365.91c.94,4.8.73,9.92.73,13.37v51.37h-9.92V396.92c.63-4,6.89-21.09,5.64-24.85-2.71-7.72-23-21.51-30.49-18.48-3.24,1.36-5.64,9-7.41,15.24v61.82h-9.92V347.12h9.92v15.45c1.25-4.91,3.65-11,7.62-13.26,7-3.86,15.66-2.82,23.49,2.4C433.67,354.32,438.68,358.71,440.25,365.91Z"/><path class="c" d="M512.5,458.32c-20.36,15.45-36.23,5.12-43.64-2.09-2-2-6.79-10.13-3.66-18.17,3-7.62,13.26-10.23,13.58-10.44-.32-.1-2.82-.73-3.24-.83-6.26-2.09-12-5.23-13.68-10.76-1.46-7.41,6.27-16.5,6.27-16.5-8.56-17.33-9.92-39.32,7.1-49.34,16.08-9.5,31.53,5.28,31.32,5,.32-9.09,8.67-17.13,12.22-17.13v13.26c-10.55,0-9.82,5.43-9.82,5.43,14.31,17.54,10,39.68,2.2,46.88-13.37,12.43-31.43,6.37-37.38.32a6,6,0,0,0-2.51,6.37c2.92,9.29,21.3,18,35.4,7.62,18.9-13.89,24.95,1,24.95,1S538.09,438.79,512.5,458.32Zm-42.6-78.21c7,28.09,26.52,27.57,31,26.21,7.63-2.19,14.93-18.06,6.69-36.65-4.6-10.44-14.52-17.54-19.84-18.48C472.93,348.47,465.41,362.05,469.9,380.11Zm51.9,43.33c-2.2-4.8-11.49-7.1-15.67-2.71-6.05,6.58-15,8.56-23.39,7.62-2-.21-6.16,5.85-6.16,5.85-6.89,9.19,6.27,31.85,27.57,25.37C519.5,454.77,526.39,433.36,521.8,423.44Z"/></g><g class="b"><path class="c" d="M499.81,74.68v51.37h-9.92V92.32c.63-4,7-21.09,5.64-24.85C492.92,59.75,472.56,46,465,49c-2.51,1-5,22.35-5,25.79v51.27h-9.71V92.32c.62-3.86,6.68-21.09,5.43-24.85C453,59.85,432.78,46,425.26,49.1c-3.24,1.25-5.64,9-7.52,15.24v61.71H408V42.52h9.71V58.07c1.36-4.9,3.76-11.06,7.73-13.26,7-3.86,15.66-2.82,23.39,2.41,2.61,1.67,4.59,2.71,6.78,6.26,0,0,5.95-6.58,9.71-8.67,7-4,15.56-2.92,23.39,2.41,3.76,2.5,8.77,6.89,10.24,14.2A69.45,69.45,0,0,1,499.81,74.68Z"/></g></svg>