<?xml version="1.0" encoding="utf-8"?>
<!-- Generator: Adobe Illustrator 26.1.0, SVG Export Plug-In . SVG Version: 6.00 Build 0)  -->
<svg version="1.1" id="Layer_1" xmlns="http://www.w3.org/2000/svg" xmlns:xlink="http://www.w3.org/1999/xlink" x="0px" y="0px"
	 viewBox="0 0 600.9 566.9" style="enable-background:new 0 0 600.9 566.9;" xml:space="preserve">
<style type="text/css">
	.st0{fill:#010101;}
	.st1{fill:#FFFFFF;}
</style>
<path class="st0" d="M0,0h600.9v566.9H0V0z"/>
<g>
	<path class="st1" d="M480.8,227.6h-9.6v-13.5c-3.2,9.5-10.4,13.5-18,13.5c-5.2,0-10.3-1.8-14.4-5c-9-7.1-11.8-26.7-0.8-33.7
		c7.7-5.5,31.5-4.6,33.1-12v-15.7c-0.3-3.4-1.6-6.6-3.8-9.2c-2.1-2.1-6.3-3.4-10.6-3.9c-6-0.7-11.6,0.9-14.8,4.1
		c-1.4,1.3,0.9,12.7,2.5,14.9l-7.5,3.4c-1.8-3.4-1.3-9-1.3-9c0.4-7,6.8-17.2,21.2-17.3c16.1-0.1,23.6,11.6,23.9,25.1L480.8,227.6z
		 M471,185.8c-3.9,5.3-18.6-0.4-24.1,1.6c-20.3,7.6,4.3,52.5,16.2,33.6c1.8-2.7,2.2-7.7,2.4-12.2h5.6
		C471.1,208.8,471.2,185.5,471,185.8z"/>
</g>
<g>
	<path class="st1" d="M453.5,329.1v-26.6c0-13.5-11.2-21.1-18.4-13.4c-4,4.3-11.2,12-11.2,12v28h-9.8V213.2h9.9v81.1
		c22.8-32.9,27-32.7,17.1-42l5.2-9.1c8.4,7.7,7.8,11.2,7.1,14.4c-1.6,7.3-12,19.1-18.6,28.2c6.1-5.5,15.1-7.8,23.1,0.7
		c3.3,4,5.1,8.9,5.2,14.1v28.4L453.5,329.1z"/>
	<path class="st1" d="M494.5,228.2c0,1.9-0.9,3.6-2.5,4.6h-5.7c-2.6-1.6-3.3-5.1-1.6-7.6c1-1.5,2.7-2.5,4.6-2.5
		C492.2,222.8,494.6,225.2,494.5,228.2C494.5,228.2,494.5,228.2,494.5,228.2z M484.5,329.1v-83.5h9.5v83.5H484.5z"/>
</g>
<g>
	<path class="st1" d="M440.2,365.9c0.9,4.8,0.7,9.9,0.7,13.4v51.4h-9.9v-33.7c0.6-4,6.9-21.1,5.6-24.9c-2.7-7.7-23-21.5-30.5-18.5
		c-3.2,1.4-5.6,9-7.4,15.2v61.8h-9.9v-83.5h9.9v15.5c1.2-4.9,3.6-11,7.6-13.3c7-3.9,15.7-2.8,23.5,2.4
		C433.7,354.3,438.7,358.7,440.2,365.9z"/>
	<path class="st1" d="M512.5,458.3c-20.4,15.5-36.2,5.1-43.6-2.1c-2-2-6.8-10.1-3.7-18.2c3-7.6,13.3-10.2,13.6-10.4
		c-0.3-0.1-2.8-0.7-3.2-0.8c-6.3-2.1-12-5.2-13.7-10.8c-1.5-7.4,6.3-16.5,6.3-16.5c-8.6-17.3-9.9-39.3,7.1-49.3
		c16.1-9.5,31.5,5.3,31.3,5c0.3-9.1,8.7-17.1,12.2-17.1v13.3c-10.5,0-9.8,5.4-9.8,5.4c14.3,17.5,10,39.7,2.2,46.9
		c-13.4,12.4-31.4,6.4-37.4,0.3c-2.1,1.4-3.1,3.9-2.5,6.4c2.9,9.3,21.3,18,35.4,7.6c18.9-13.9,24.9,1,24.9,1
		S538.1,438.8,512.5,458.3z M469.9,380.1c7,28.1,26.5,27.6,31,26.2c7.6-2.2,14.9-18.1,6.7-36.6c-4.6-10.4-14.5-17.5-19.8-18.5
		C472.9,348.5,465.4,362,469.9,380.1L469.9,380.1z M521.8,423.4c-2.2-4.8-11.5-7.1-15.7-2.7c-6,6.6-15,8.6-23.4,7.6
		c-2-0.2-6.2,5.9-6.2,5.9c-6.9,9.2,6.3,31.9,27.6,25.4C519.5,454.8,526.4,433.4,521.8,423.4z"/>
</g>
<g>
	<path class="st1" d="M499.8,74.7v51.4h-9.9V92.3c0.6-4,7-21.1,5.6-24.8c-2.6-7.7-23-21.5-30.5-18.5c-2.5,1-5,22.3-5,25.8v51.3h-9.7
		V92.3c0.6-3.9,6.7-21.1,5.4-24.8c-2.7-7.6-22.9-21.5-30.5-18.4c-3.2,1.2-5.6,9-7.5,15.2V126H408V42.5h9.7v15.5
		c1.4-4.9,3.8-11.1,7.7-13.3c7-3.9,15.7-2.8,23.4,2.4c2.6,1.7,4.6,2.7,6.8,6.3c0,0,6-6.6,9.7-8.7c7-4,15.6-2.9,23.4,2.4
		c3.8,2.5,8.8,6.9,10.2,14.2C499.7,65.8,499.9,70.2,499.8,74.7z"/>
</g>
<g>
	<path class="st1" d="M216.4,117.2c0,0.6-0.4,1.1-1.2,1.5c-8.6,3.6-15.4,8.2-20.3,14c-4.7,5.5-7.9,11.8-9.7,18.9
		c-0.1,0.8-0.4,1.9-0.8,3.4c-0.3,1-1.5,1.5-3.7,1.5c-1.6,0-2.3-0.7-2.3-2.1c0-0.3,0.2-1.1,0.5-2.6c3.2-13.4,10.3-23.9,21.1-31.6
		h-68.6v38.1c0,1.8-1,2.7-3,2.7c-2,0-3-0.9-3-2.7v-38.1h-7.1c-12.2,0-20.9-1.3-26.2-3.9c-7.9-3.8-11.8-11.2-11.8-22
		c0-17.3,8.5-26,25.5-26c11.6,0,19.1,5.2,22.7,15.7c2,5.7,2.9,15.7,2.9,30.2h68.6c-10.9-7.9-17.9-18.5-21.1-31.6
		c-0.3-1.4-0.5-2.3-0.5-2.6c0-1.4,1.2-2.1,3.7-2.1c1.1,0,1.9,0.5,2.3,1.5c0.2,0.8,0.5,1.9,0.8,3.4c1.8,7,5,13.3,9.7,18.8
		c4.8,5.7,10.4,9.8,16.9,12.5C214.9,115.5,216.4,116.5,216.4,117.2z M125.6,114.2v-10c0-9.1-1-15.9-3.1-20.3
		c-3-6.4-8.5-9.6-16.6-9.6C99,74.3,94,75.9,91,79.1c-3,3.2-4.5,8.3-4.5,15.2c0,8.1,3,13.7,8.9,16.8c4.2,2.2,10.9,3.3,19.8,3.3
		c1.2,0,2.9,0,5.2-0.1C122.8,114.3,124.5,114.2,125.6,114.2z"/>
</g>
</svg>
