<?xml version="1.0" encoding="utf-8"?>
<!-- Generator: Adobe Illustrator 26.1.0, SVG Export Plug-In . SVG Version: 6.00 Build 0)  -->
<svg version="1.1" id="Layer_1" xmlns="http://www.w3.org/2000/svg" xmlns:xlink="http://www.w3.org/1999/xlink" x="0px" y="0px"
	 viewBox="0 0 600.9 566.9" style="enable-background:new 0 0 600.9 566.9;" xml:space="preserve">
<style type="text/css">
	.st0{fill:#010101;}
	.st1{fill:#FFFFFF;}
</style>
<path class="st0" d="M0,0h600.9v566.9H0V0z"/>
<g>
	<path class="st1" d="M499.8,74.7v51.4h-9.9V92.3c0.6-4,7-21.1,5.6-24.8c-2.6-7.7-23-21.5-30.5-18.5c-2.5,1-5,22.4-5,25.8v51.3h-9.7
		V92.3c0.6-3.9,6.7-21.1,5.4-24.8c-2.7-7.6-23-21.5-30.5-18.4c-3.2,1.2-5.6,9-7.5,15.2V126h-9.7V42.5h9.7v15.5
		c1.4-4.9,3.8-11.1,7.7-13.3c7-3.9,15.7-2.8,23.4,2.4c2.6,1.7,4.6,2.7,6.8,6.3c0,0,6-6.6,9.7-8.7c7-4,15.5-2.9,23.4,2.4
		c3.8,2.5,8.8,6.9,10.2,14.2C499.7,65.8,500,70.2,499.8,74.7z"/>
</g>
<g>
	<path class="st1" d="M457.1,227.6h-9.6v-13.5c-3.2,9.5-10.4,13.5-18,13.5c-5.2,0-10.3-1.8-14.4-5c-9-7.1-11.8-26.7-0.8-33.7
		c7.7-5.5,31.5-4.6,33.1-12v-15.7c-0.3-3.4-1.6-6.6-3.8-9.2c-2.1-2.1-6.3-3.4-10.6-3.9c-6-0.7-11.6,0.9-14.8,4.1
		c-1.4,1.3,0.9,12.7,2.5,14.9l-7.5,3.4c-1.8-3.4-1.3-9-1.3-9c0.4-7,6.8-17.2,21.2-17.3c16.1-0.1,23.6,11.6,23.9,25.1L457.1,227.6z
		 M447.3,185.8c-3.9,5.3-18.6-0.4-24.1,1.6c-20.3,7.6,4.3,52.5,16.2,33.6c1.8-2.7,2.2-7.7,2.4-12.2h5.6
		C447.4,208.8,447.5,185.5,447.3,185.8L447.3,185.8z"/>
	<path class="st1" d="M478.3,147.1h-13.9v-3.5h13.9v-21.8h9.7v21.9h17.9v3.8H488v69.6c0,1.8-0.1,3.1,0.8,4.2c1.4,1.2,3.2,2,5.1,2.2
		c1.3-0.1,1.9-1.4,3-4.5c0.9-2.5,1.6-5.1,2.1-7.7l8.5,2.8c-1.1,4.1-7,8.7-9.3,10.2c-5.4,3.8-8.5,3.2-10,3.2
		c-5.7-0.7-9.9-5.2-9.9-18.2L478.3,147.1z"/>
</g>
<g>
	<path class="st1" d="M414,248.6h-13.9v-3.5H414v-21.8h9.7v21.9h17.9v3.7h-17.9v69.6c0,1.8-0.1,3.1,0.8,4.2c1.4,1.2,3.2,2,5.1,2.2
		c1.3-0.1,1.9-1.4,3-4.5c0.9-2.5,1.6-5.1,2.1-7.7l8.5,2.8c-1.1,4.1-7,8.7-9.3,10.2c-5.4,3.8-8.5,3.2-10,3.2
		c-5.7-0.7-9.9-5.2-9.9-18.2L414,248.6z"/>
	<path class="st1" d="M458.4,284.5c1.8,8.1,5,15.8,9.4,22.9c1.7,2.8,9.1,14.3,22.5,14.3c9.7,0,10.8-11.5,10.8-19.4h6.9
		c-1.8,11-7.4,26.8-23.2,26.8c-10.1,0-18.9-7.2-22.2-11.6c-3.8-5.1-20.6-28.5-4.6-58.5c5-8,10.3-11.1,16.7-12.8
		c7.5-2,24.9,2.2,31.4,19.3c2.5,6.9,2.8,16.9,2.3,19L458.4,284.5z M457.8,281h42c-0.1-4.4-4.2-22.1-16.4-27
		c-10.3-4.1-18.7-1.3-23.1,7.3C460.3,261.2,456,268.1,457.8,281z"/>
</g>
<g>
	<path class="st1" d="M485.5,366.4h-13c-0.5-6.6-2.7-15.5-8.4-15.5c-13.4,0-17.3,12.7-17.3,12.7v67h-9.3v-74.7
		c3.1,0,10.9-8.7,17.9-8.7c9,0,18.7,2.1,27.4,13.6C483.8,362.6,484.8,364.5,485.5,366.4z"/>
</g>
<g>
	<path class="st1" d="M216.5,117.2c0,0.6-0.4,1.1-1.2,1.5c-8.6,3.6-15.4,8.2-20.3,14c-4.6,5.5-7.9,11.8-9.7,18.9
		c-0.1,0.8-0.4,1.9-0.8,3.4c-0.3,1-1.6,1.5-3.7,1.5c-1.6,0-2.3-0.7-2.3-2.1c0-0.3,0.2-1.1,0.5-2.6c3.2-13.3,10.2-23.9,21.1-31.6
		h-85.6c-10.8,4.7-18.7,12.4-23.7,23c-1.2,2.5-2.1,5.3-2.9,8.3c-0.1,1.4-0.8,2.9-1.8,4.7c-0.3,0.1-0.7,0.2-1.3,0.2
		c-2.4,0-3.7-0.7-3.7-2.1c0-0.3,0.2-1.1,0.5-2.6c3.6-14.8,11.9-26.4,24.9-34.6c-13-8.3-21.3-19.8-24.9-34.6
		c-0.3-1.4-0.5-2.3-0.5-2.6c0-1.4,1.2-2.1,3.7-2.1c1.2,0,2,0.5,2.3,1.5c0.2,0.8,0.5,1.9,0.8,3.4c0.8,3,1.8,5.8,2.9,8.3
		c5,10.6,12.9,18.3,23.7,23h85.6c-10.9-7.9-18-18.5-21.1-31.6c-0.3-1.4-0.5-2.3-0.5-2.6c0-1.4,1.2-2.1,3.7-2.1c1.2,0,2,0.5,2.3,1.5
		c0.2,0.8,0.5,1.9,0.8,3.4c1.8,7,5.1,13.3,9.7,18.9s10.3,9.7,16.8,12.5C215,115.5,216.5,116.5,216.5,117.2z"/>
</g>
</svg>
