<svg xmlns="http://www.w3.org/2000/svg" viewBox="0 0 600.9 566.9"><defs><style>.a{fill:#010101;}.b{isolation:isolate;}.c{fill:#fff;}</style></defs><path class="a" d="M0,0H600.9V566.9H0Z"/><g class="b"><path class="c" d="M499.83,74.68v51.37h-9.92V92.32c.63-4,7-21.09,5.64-24.85-2.61-7.72-23-21.51-30.49-18.48-2.5,1-5,22.35-5,25.79v51.27h-9.71V92.32c.63-3.86,6.68-21.09,5.43-24.85-2.72-7.62-23-21.51-30.49-18.37-3.24,1.25-5.64,9-7.52,15.24v61.71h-9.71V42.52h9.71V58.07c1.36-4.9,3.76-11.06,7.73-13.26,7-3.86,15.66-2.82,23.39,2.41,2.61,1.67,4.59,2.71,6.78,6.26,0,0,6-6.58,9.72-8.67,7-4,15.55-2.92,23.38,2.41,3.76,2.5,8.77,6.89,10.24,14.2A68.64,68.64,0,0,1,499.83,74.68Z"/></g><g class="b"><path class="c" d="M457.08,227.58h-9.61V214.11c-3.24,9.5-10.44,13.47-18,13.47a23.42,23.42,0,0,1-14.41-5c-9-7.1-11.8-26.73-.83-33.73,7.72-5.53,31.53-4.59,33.09-12V161.17a16.41,16.41,0,0,0-3.75-9.18c-2.09-2.09-6.27-3.35-10.65-3.87-6-.73-11.6.94-14.83,4.07-1.36,1.26.94,12.74,2.5,14.94l-7.51,3.44c-1.78-3.44-1.26-9-1.26-9,.42-7,6.79-17.23,21.2-17.33,16.08-.11,23.6,11.59,23.91,25.06Zm-9.82-41.76c-3.86,5.32-18.59-.42-24.12,1.56C402.88,195,427.42,239.9,439.32,221c1.78-2.71,2.2-7.72,2.41-12.21h5.63S447.47,185.5,447.26,185.82Z"/><path class="c" d="M478.27,147.12H464.38v-3.49h13.89V121.81H488v21.93h17.86v3.76H488v69.64c0,1.78-.1,3.13.84,4.18a9.19,9.19,0,0,0,5.11,2.19c1.26-.1,1.88-1.36,3-4.49a49.19,49.19,0,0,0,2.09-7.73l8.46,2.82c-1.15,4.08-7,8.67-9.3,10.24-5.43,3.75-8.45,3.23-10,3.23-5.74-.73-9.92-5.22-9.92-18.17Z"/></g><g class="b"><path class="c" d="M414,248.65H400.06v-3.48H414V223.34h9.71v21.93h17.86V249H423.66v69.64c0,1.78-.1,3.14.84,4.18a9.19,9.19,0,0,0,5.11,2.19c1.26-.1,1.88-1.35,3-4.49a49.18,49.18,0,0,0,2.09-7.72l8.46,2.82c-1.15,4.07-7,8.66-9.29,10.23-5.43,3.76-8.46,3.24-10,3.24-5.74-.73-9.92-5.23-9.92-18.17Z"/><path class="c" d="M458.43,284.53a74.9,74.9,0,0,0,9.39,22.87c1.67,2.82,9.09,14.3,22.45,14.3,9.71,0,10.76-11.48,10.76-19.42h6.89c-1.78,11-7.42,26.84-23.18,26.84-10.13,0-18.9-7.21-22.24-11.59-3.76-5.12-20.57-28.51-4.6-58.48,5-8,10.34-11.07,16.71-12.84,7.52-2,24.85,2.19,31.43,19.32,2.5,6.89,2.82,16.91,2.3,19ZM457.8,281h42c-.1-4.39-4.17-22.14-16.39-27-10.34-4.08-18.69-1.26-23.08,7.31C460.3,261.25,456,268.14,457.8,281Z"/></g><g class="b"><path class="c" d="M485.53,366.43h-13c-.53-6.58-2.72-15.55-8.36-15.55-13.36,0-17.33,12.73-17.33,12.73v67H437.5V355.89c3.13,0,10.86-8.67,17.85-8.67,9,0,18.69,2.09,27.36,13.57A32.58,32.58,0,0,1,485.53,366.43Z"/></g></svg>