<svg xmlns="http://www.w3.org/2000/svg" viewBox="0 0 600.9 566.9"><defs><style>.a{fill:#010101;}.b{isolation:isolate;}.c{fill:#fff;}</style></defs><path class="a" d="M0,0H600.9V566.9H0Z"/><g class="b"><path class="c" d="M392.31,107.05c-.94-4.81-.73-9.92-.73-13.37V42.52h9.71V75.93c-.63,4-6.69,21.2-5.33,25,2.61,7.72,23,21.61,30.6,18.58,3.23-1.36,5.63-9.08,7.41-15.35V42.52h9.81v83.53H434V110.49c-1.36,4.91-3.76,11.07-7.73,13.26-7,4-15.66,2.93-23.49-2.4C398.89,118.74,393.87,114.35,392.31,107.05Z"/><path class="c" d="M516.25,61.31c.94,4.8.73,9.92.73,13.37v51.37h-9.92V92.32c.63-4,6.89-21.09,5.64-24.85C510,59.75,489.73,46,482.21,49c-3.24,1.36-5.64,9-7.42,15.24v61.82h-9.92V42.52h9.92V58c1.26-4.91,3.66-11,7.63-13.26,7-3.86,15.66-2.82,23.49,2.4C509.67,49.72,514.68,54.11,516.25,61.31Z"/></g><g class="b"><path class="c" d="M429.32,112.1V227.58h-9.39V214.11a33.71,33.71,0,0,1-7.84,8.67c-4.28,3.76-7.72,4.8-12.21,4.8-10.13.11-19-7.2-22.35-11.69-3.76-5-20.57-28.4-4.49-58.37,5-8,10.24-11.07,16.61-12.74,7.62-2.09,22.44,3,30.07,15.87V112.1Zm-9.39,56.59V164H410c-2.3-3.34-6.27-9.39-11.59-11.48-10.24-4.28-18.69-1.36-23.08,7.31,0,0-10.13,16.29,7.52,45.94,1.77,2.92,6.79,9.19,13.78,12.32,7.52,3.55,17.13,3.55,21.51-7.73,1.25-4.17,1.46-8.25,1.78-12.21Z"/><path class="c" d="M464.82,126.72a5.47,5.47,0,0,1-2.5,4.59h-5.75a5.51,5.51,0,0,1,2.93-10.13A5.39,5.39,0,0,1,464.82,126.72Zm-10,100.86V144.05h9.5v83.53Z"/><path class="c" d="M529.81,224.14C501,237,485.54,211.29,482.72,204.51h14.2c2.4,5.32,7.52,20.67,25.48,20.67,4.49,0,16.18-13.16,8.67-39.36-3.14-10.65-39.06,5.84-45.11-9.09-3.45-8.35.21-26.31,18-31.43,5.32-1.56,25.58-5.64,38.42,16.92H529.5c-2.82-5.54-14.93-19.11-26.73-14-4.8,2.08-8.25,13.67-6.89,20.67.94,5.85,2,5.85,8.87,7.52,13.26,3.13,20-.11,29.87,5.11C552.78,190.93,543.8,217.87,529.81,224.14Z"/></g><g class="b"><path class="c" d="M428.49,302.28c-1.78,10.86-7.42,26.84-23.08,26.84-10.23,0-19-7.21-22.34-11.7-3.76-5.11-20.57-28.4-4.6-58.37,5.12-8.14,10.34-11.07,16.71-12.84,7.62-2.09,24.85,2.09,31.43,19.32H415.44c-2.3-3.34-6.27-9.4-11.49-11.59-10.34-4.18-18.69-1.26-23.08,7.31,0,0-10.23,16.28,7.52,46,1.67,2.93,9.09,14.31,22.45,14.31,9.71,0,10.76-11.49,10.76-19.32Z"/><path class="c" d="M451.87,228.25a5.45,5.45,0,0,1-2.5,4.59h-5.74a5.5,5.5,0,0,1,2.92-10.12A5.38,5.38,0,0,1,451.87,228.25Zm-10,100.87V245.58h9.5v83.54Z"/><path class="c" d="M474.85,361.73V245.58l9.81-.1v13a32.56,32.56,0,0,1,7.94-8.77c4.28-3.76,7.83-4.91,12.32-4.91,10.23-.1,19.21,7.31,22.55,11.8,3.76,5.12,20.78,28.72,4.6,59-5.12,8.24-10.45,11.17-16.82,12.94-7.72,2.2-22.76-3-30.38-16.08v49.22Zm9.81-57.26v4.7h10c2.3,3.34,6.37,9.5,11.7,11.59,10.34,4.28,18.9,1.36,23.28-7.31,0,0,10.24-16.49-7.62-46.57a34.83,34.83,0,0,0-13.78-12.42c-7.62-3.55-17.33-3.55-21.82,7.93-1.36,4.08-1.47,8.25-1.78,12.22Z"/></g><g class="b"><path class="c" d="M419.3,417c-1.15,4.18-7,8.56-9.19,10.23-4.8,3.45-8.56,3.66-12.74,3.45-5-.31-9.5-3.76-9.5-10.34V314.74h9.29v90.85c0,7.83-1.56,19.11,8.67,20.78,1.25-.11,1.88-1.36,3-4.49a67.91,67.91,0,0,0,2.09-7.62Z"/><path class="c" d="M446.76,329.78a5.49,5.49,0,0,1-2.51,4.6h-5.74a5.51,5.51,0,0,1,2.92-10.13A5.4,5.4,0,0,1,446.76,329.78Zm-10,100.87V347.12h9.5v83.53Z"/><path class="c" d="M522.67,365.91c.94,4.8.73,9.92.73,13.37v51.37h-9.92V396.92c.63-4,6.89-21.09,5.64-24.85-2.72-7.72-23-21.51-30.49-18.48-3.24,1.36-5.64,9-7.42,15.24v61.82H471.3V347.12h9.91v15.45c1.26-4.91,3.66-11,7.63-13.26,7-3.86,15.66-2.82,23.49,2.4C516.09,354.32,521.1,358.71,522.67,365.91Z"/></g><g class="b"><path class="c" d="M395.17,487.6a75.18,75.18,0,0,0,9.4,22.86c1.67,2.82,9.09,14.31,22.45,14.31,9.71,0,10.76-11.49,10.76-19.42h6.89c-1.78,11-7.42,26.83-23.18,26.83-10.13,0-18.9-7.2-22.24-11.59-3.76-5.12-20.57-28.5-4.6-58.47,5-8,10.34-11.07,16.71-12.85,7.52-2,24.85,2.2,31.43,19.32,2.5,6.89,2.82,16.92,2.29,19Zm-.62-3.55h42c-.1-4.39-4.17-22.14-16.39-27.05-10.34-4.07-18.69-1.25-23.08,7.31C397.05,464.31,392.77,471.2,394.55,484.05Z"/><path class="c" d="M517,416.7V532.18h-9.4V518.71a33.55,33.55,0,0,1-7.83,8.67c-4.28,3.76-7.72,4.8-12.21,4.8-10.13.11-19-7.2-22.35-11.69-3.76-5-20.57-28.4-4.49-58.37,5-8,10.23-11.07,16.6-12.74,7.63-2.09,22.45,3,30.07,15.87V416.7Zm-9.4,56.59v-4.7h-9.92c-2.29-3.34-6.26-9.4-11.59-11.48-10.23-4.29-18.69-1.36-23.07,7.31,0,0-10.13,16.28,7.52,45.94,1.77,2.92,6.78,9.19,13.78,12.32,7.52,3.55,17.12,3.55,21.51-7.73a56.51,56.51,0,0,0,1.77-12.21Z"/></g></svg>