<?xml version="1.0" encoding="utf-8"?>
<!-- Generator: Adobe Illustrator 26.1.0, SVG Export Plug-In . SVG Version: 6.00 Build 0)  -->
<svg version="1.1" id="Layer_1" xmlns="http://www.w3.org/2000/svg" xmlns:xlink="http://www.w3.org/1999/xlink" x="0px" y="0px"
	 viewBox="0 0 600.9 566.9" style="enable-background:new 0 0 600.9 566.9;" xml:space="preserve">
<style type="text/css">
	.st0{fill:#010101;}
	.st1{fill:#FFFFFF;}
</style>
<path class="st0" d="M0,0h600.9v566.9H0V0z"/>
<g>
	<path class="st1" d="M392.3,107.1c-0.9-4.8-0.7-9.9-0.7-13.4V42.5h9.7v33.4c-0.6,4-6.7,21.2-5.3,25c2.6,7.7,23,21.6,30.6,18.6
		c3.2-1.4,5.6-9.1,7.4-15.3V42.5h9.8v83.5H434v-15.6c-1.4,4.9-3.8,11.1-7.7,13.3c-7,4-15.7,2.9-23.5-2.4
		C398.9,118.7,393.9,114.3,392.3,107.1z"/>
	<path class="st1" d="M516.2,61.3c0.9,4.8,0.7,9.9,0.7,13.4v51.4h-9.9V92.3c0.6-4,6.9-21.1,5.6-24.8c-2.7-7.7-23-21.5-30.5-18.5
		c-3.2,1.4-5.6,9-7.4,15.2v61.8h-9.9V42.5h9.9V58c1.3-4.9,3.7-11,7.6-13.3c7-3.9,15.7-2.8,23.5,2.4
		C509.7,49.7,514.7,54.1,516.2,61.3z"/>
</g>
<g>
	<path class="st1" d="M429.3,112.1v115.5h-9.4v-13.5c-2.1,3.3-4.7,6.3-7.8,8.7c-4.3,3.8-7.7,4.8-12.2,4.8
		c-10.1,0.1-19-7.2-22.4-11.7c-3.8-5-20.6-28.4-4.5-58.4c5-8,10.2-11.1,16.6-12.7c7.6-2.1,22.4,3,30.1,15.9v-48.5H429.3z
		 M419.9,168.7V164H410c-2.3-3.3-6.3-9.4-11.6-11.5c-10.2-4.3-18.7-1.4-23.1,7.3c0,0-10.1,16.3,7.5,45.9c1.8,2.9,6.8,9.2,13.8,12.3
		c7.5,3.6,17.1,3.6,21.5-7.7c1.2-4.2,1.5-8.2,1.8-12.2L419.9,168.7z"/>
	<path class="st1" d="M464.8,126.7c0,1.9-0.9,3.6-2.5,4.6h-5.8c-2.6-1.7-3.3-5.1-1.6-7.6c1-1.5,2.7-2.5,4.5-2.5
		C462.5,121.2,464.9,123.7,464.8,126.7C464.8,126.7,464.8,126.7,464.8,126.7z M454.8,227.6v-83.5h9.5v83.5H454.8z"/>
	<path class="st1" d="M529.8,224.1c-28.8,12.9-44.3-12.9-47.1-19.6h14.2c2.4,5.3,7.5,20.7,25.5,20.7c4.5,0,16.2-13.2,8.7-39.4
		c-3.1-10.6-39.1,5.8-45.1-9.1c-3.5-8.4,0.2-26.3,18-31.4c5.3-1.6,25.6-5.6,38.4,16.9h-12.9c-2.8-5.5-14.9-19.1-26.7-14
		c-4.8,2.1-8.2,13.7-6.9,20.7c0.9,5.9,2,5.9,8.9,7.5c13.3,3.1,20-0.1,29.9,5.1C552.8,190.9,543.8,217.9,529.8,224.1z"/>
</g>
<g>
	<path class="st1" d="M428.5,302.3c-1.8,10.9-7.4,26.8-23.1,26.8c-10.2,0-19-7.2-22.3-11.7c-3.8-5.1-20.6-28.4-4.6-58.4
		c5.1-8.1,10.3-11.1,16.7-12.8c7.6-2.1,24.9,2.1,31.4,19.3h-11.2c-2.3-3.3-6.3-9.4-11.5-11.6c-10.3-4.2-18.7-1.3-23.1,7.3
		c0,0-10.2,16.3,7.5,46c1.7,2.9,9.1,14.3,22.5,14.3c9.7,0,10.8-11.5,10.8-19.3L428.5,302.3z"/>
	<path class="st1" d="M451.9,228.2c0,1.9-0.9,3.6-2.5,4.6h-5.7c-2.6-1.6-3.3-5.1-1.6-7.6c1-1.5,2.7-2.5,4.6-2.5
		C449.5,222.8,451.9,225.2,451.9,228.2C451.9,228.2,451.9,228.2,451.9,228.2z M441.9,329.1v-83.5h9.5v83.5H441.9z"/>
	<path class="st1" d="M474.9,361.7V245.6l9.8-0.1v13c2.1-3.4,4.8-6.4,7.9-8.8c4.3-3.8,7.8-4.9,12.3-4.9c10.2-0.1,19.2,7.3,22.6,11.8
		c3.8,5.1,20.8,28.7,4.6,59c-5.1,8.2-10.5,11.2-16.8,12.9c-7.7,2.2-22.8-3-30.4-16.1v49.2L474.9,361.7z M484.7,304.5v4.7h10
		c2.3,3.3,6.4,9.5,11.7,11.6c10.3,4.3,18.9,1.4,23.3-7.3c0,0,10.2-16.5-7.6-46.6c-3.4-5.3-8.1-9.6-13.8-12.4
		c-7.6-3.6-17.3-3.6-21.8,7.9c-1.4,4.1-1.5,8.2-1.8,12.2L484.7,304.5z"/>
</g>
<g>
	<path class="st1" d="M419.3,417c-1.1,4.2-7,8.6-9.2,10.2c-4.8,3.5-8.6,3.7-12.7,3.5c-5-0.3-9.5-3.8-9.5-10.3V314.7h9.3v90.9
		c0,7.8-1.6,19.1,8.7,20.8c1.2-0.1,1.9-1.4,3-4.5c0.8-2.5,1.5-5,2.1-7.6L419.3,417z"/>
	<path class="st1" d="M446.8,329.8c0,1.9-0.9,3.6-2.5,4.6h-5.7c-2.6-1.7-3.3-5.1-1.6-7.6c1-1.5,2.7-2.5,4.5-2.5
		C444.4,324.3,446.8,326.7,446.8,329.8C446.8,329.7,446.8,329.8,446.8,329.8z M436.8,430.6v-83.5h9.5v83.5H436.8z"/>
	<path class="st1" d="M522.7,365.9c0.9,4.8,0.7,9.9,0.7,13.4v51.4h-9.9v-33.7c0.6-4,6.9-21.1,5.6-24.9c-2.7-7.7-23-21.5-30.5-18.5
		c-3.2,1.4-5.6,9-7.4,15.2v61.8h-9.9v-83.5h9.9v15.5c1.3-4.9,3.7-11,7.6-13.3c7-3.9,15.7-2.8,23.5,2.4
		C516.1,354.3,521.1,358.7,522.7,365.9z"/>
</g>
<g>
	<path class="st1" d="M395.2,487.6c1.9,8.1,5,15.8,9.4,22.9c1.7,2.8,9.1,14.3,22.5,14.3c9.7,0,10.8-11.5,10.8-19.4h6.9
		c-1.8,11-7.4,26.8-23.2,26.8c-10.1,0-18.9-7.2-22.2-11.6c-3.8-5.1-20.6-28.5-4.6-58.5c5-8,10.3-11.1,16.7-12.9
		c7.5-2,24.9,2.2,31.4,19.3c2.5,6.9,2.8,16.9,2.3,19L395.2,487.6z M394.6,484.1h42c-0.1-4.4-4.2-22.1-16.4-27
		c-10.3-4.1-18.7-1.2-23.1,7.3C397,464.3,392.8,471.2,394.6,484.1L394.6,484.1z"/>
	<path class="st1" d="M517,416.7v115.5h-9.4v-13.5c-2.1,3.3-4.7,6.3-7.8,8.7c-4.3,3.8-7.7,4.8-12.2,4.8c-10.1,0.1-19-7.2-22.4-11.7
		c-3.8-5-20.6-28.4-4.5-58.4c5-8,10.2-11.1,16.6-12.7c7.6-2.1,22.5,3,30.1,15.9v-48.5H517z M507.6,473.3v-4.7h-9.9
		c-2.3-3.3-6.3-9.4-11.6-11.5c-10.2-4.3-18.7-1.4-23.1,7.3c0,0-10.1,16.3,7.5,45.9c1.8,2.9,6.8,9.2,13.8,12.3
		c7.5,3.5,17.1,3.5,21.5-7.7c1-4,1.6-8.1,1.8-12.2L507.6,473.3z"/>
</g>
<g>
	<path class="st1" d="M214.6,116.9c0,0.5-0.7,1.2-2,1.9c-7.5,4.3-13.1,10.1-16.8,17.3c-0.5,1.3-1.1,2.5-1.6,3.8
		c-0.8,1.6-1.7,2.3-2.9,2.3c-2.1,0-3.1-1-3.1-2.9c0-0.3,0.1-0.7,0.2-1.1c2.5-7,6.8-13.2,13-18.4h-33.5c-0.8,0-1.6-0.3-2.3-1
		L154,108.5l-25.5,23c-0.6,0.6-1.4,0.9-2.3,0.9s-1.6-0.3-2.3-0.9l-25.5-23l-11.7,10.4c-0.8,0.7-1.5,1-2.2,1c-2,0-3-1-3-3
		c0-1,0.2-1.7,0.7-2.1l13.9-12.5c0.6-0.6,1.4-0.9,2.3-0.9s1.6,0.3,2.3,0.9l25.5,23l25.5-23c0.6-0.6,1.4-0.9,2.3-0.9s1.6,0.3,2.3,0.9
		l12.9,11.6h32.4c-6.3-5.3-10.7-11.5-13.1-18.5c-0.1-0.4-0.2-0.8-0.2-1.1c0-1.9,1-2.9,3.1-2.9c1.2,0,2.1,0.8,2.9,2.3
		c0.5,1.3,1.1,2.6,1.6,3.9c3.7,7.2,9.3,13,16.8,17.4C213.9,115.8,214.6,116.4,214.6,116.9z"/>
</g>
</svg>
